<svg width="1144.1751464843749px" height="385.76002197265626px" xmlns="http://www.w3.org/2000/svg" viewBox="-322.08757324218743 -117.88001098632813 1144.1751464843749 385.76002197265626" style="background: rgba(0, 0, 0, 0);" preserveAspectRatio="xMidYMid"><defs><filter id="editing-extrude-glow"><feFlood flood-color="rgba(25.48571050734747%,24.215234147426486%,22.24469751075272%,0.353)" result="flood-1"></feFlood><feMorphology operator="erode" radius="1" in="SourceAlpha" result="erode"></feMorphology><feComposite operator="in" in="flood-1" in2="erode" result="comp1"></feComposite><feConvolveMatrix order="0,0" divisor="1" in="comp1" result="convolve" kernelMatrix=""></feConvolveMatrix><feOffset dx="0" dy="0" in="convolve" result="extrude"></feOffset><feComposite operator="in" in="flood-1" in2="extrude" result="comp-extrude"></feComposite><feFlood flood-color="rgba(0%,0%,0%,0.366)" result="flood-2"></feFlood><feComposite operator="in" in="flood-2" in2="SourceAlpha" result="comp2"></feComposite><feMorphology operator="dilate" radius="1" in="comp2" result="dilate"></feMorphology><feOffset dx="0" dy="0" in="dilate" result="offset"></feOffset><feGaussianBlur in="offset" stdDeviation="5.8" result="blur"></feGaussianBlur><feComponentTransfer in="blur" result="shadow"><feFuncA type="linear" slope="0.8" intercept="-0.2"></feFuncA></feComponentTransfer><feMerge><feMergeNode in="shadow"></feMergeNode><feMergeNode in="comp-extrude"></feMergeNode><feMergeNode in="SourceGraphic"></feMergeNode></feMerge></filter></defs><g filter="url(#editing-extrude-glow)"><g transform="translate(-166.6999969482422, 146.20000457763672)"><path d="M80.40-140L80.40-140Q111-140 128.80-124.70L128.80-124.70L128.80-124.70Q146.60-109.40 146.60-81L146.60-81L104.40-81L104.40-81Q104.40-93 98.10-100L98.10-100L98.10-100Q91.80-107 80.20-107L80.20-107L80.20-107Q66.80-107 60.50-98.60L60.50-98.60L60.50-98.60Q54.20-90.20 54.20-75.20L54.20-75.20L54.20-62.40L54.20-62.40Q54.20-47.60 60.50-39.10L60.50-39.10L60.50-39.10Q66.80-30.60 79.80-30.60L79.80-30.60L79.80-30.60Q92.60-30.60 99.20-37.20L99.20-37.20L99.20-37.20Q105.80-43.80 105.80-55.80L105.80-55.80L146.60-55.80L146.60-55.80Q146.60-27.60 129.30-12.60L129.30-12.60L129.30-12.60Q112 2.40 80.40 2.40L80.40 2.40L80.40 2.40Q45.20 2.40 27.10-15.60L27.10-15.60L27.10-15.60Q9-33.60 9-68.80L9-68.80L9-68.80Q9-104 27.10-122L27.10-122L27.10-122Q45.20-140 80.40-140L80.40-140ZM301-95.40L301-95.40Q301-82.80 294.20-72.60L294.20-72.60L294.20-72.60Q287.40-62.40 274.40-57.60L274.40-57.60L305 0L255.40 0L231.00-50.20L214.60-50.20L214.60 0L170.40 0L170.40-137.60L254.60-137.60L254.60-137.60Q269.40-137.60 279.90-131.90L279.90-131.90L279.90-131.90Q290.40-126.20 295.70-116.50L295.70-116.50L295.70-116.50Q301-106.80 301-95.40L301-95.40ZM256-93.60L256-93.60Q256-99 252.40-102.60L252.40-102.60L252.40-102.60Q248.80-106.20 243.60-106.20L243.60-106.20L214.60-106.20L214.60-80.80L243.60-80.80L243.60-80.80Q248.80-80.80 252.40-84.50L252.40-84.50L252.40-84.50Q256-88.20 256-93.60L256-93.60ZM394.40-140L394.40-140Q430.00-140 449.40-121.80L449.40-121.80L449.40-121.80Q468.80-103.60 468.80-68.80L468.80-68.80L468.80-68.80Q468.80-34 449.40-15.80L449.40-15.80L449.40-15.80Q430.00 2.40 394.40 2.40L394.40 2.40L394.40 2.40Q358.80 2.40 339.50-15.70L339.50-15.70L339.50-15.70Q320.20-33.80 320.20-68.80L320.20-68.80L320.20-68.80Q320.20-103.80 339.50-121.90L339.50-121.90L339.50-121.90Q358.80-140 394.40-140L394.40-140ZM394.40-107L394.40-107Q380.20-107 372.80-98.40L372.80-98.40L372.80-98.40Q365.40-89.80 365.40-75.20L365.40-75.20L365.40-62.40L365.40-62.40Q365.40-47.80 372.80-39.20L372.80-39.20L372.80-39.20Q380.20-30.60 394.40-30.60L394.40-30.60L394.40-30.60Q408.60-30.60 416.10-39.20L416.10-39.20L416.10-39.20Q423.60-47.80 423.60-62.40L423.60-62.40L423.60-75.20L423.60-75.20Q423.60-89.80 416.10-98.40L416.10-98.40L416.10-98.40Q408.60-107 394.40-107L394.40-107ZM644.60 0L596.00 0L578.20-83.80L577.40-83.80L559.60 0L511.00 0L478.80-137.60L524.80-137.60L540.60-59.60L541.40-59.60L557.00-137.60L600.60-137.60L617.20-59.60L618.00-59.60L632.80-137.60L676.80-137.60L644.60 0ZM752.20-137.60L752.20-137.60Q824.40-137.60 824.40-68.80L824.40-68.80L824.40-68.80Q824.40 0 752.20 0L752.20 0L692.60 0L692.60-137.60L752.20-137.60ZM736.80-104.60L736.80-33L751.40-33L751.40-33Q779.20-33 779.20-62.80L779.20-62.80L779.20-74.80L779.20-74.80Q779.20-104.60 751.40-104.60L751.40-104.60L736.80-104.60Z" fill="rgba(0%,0%,0%,0.502)"></path></g></g><style>text {
  font-size: 64px;
  font-family: Arial Black;
  dominant-baseline: central;
  text-anchor: middle;
}</style></svg>