<svg width="821.4724853515625px" height="359.8400146484375px" xmlns="http://www.w3.org/2000/svg" viewBox="-160.73624267578123 -104.92000732421874 821.4724853515625 359.8400146484375" style="background: rgba(255, 255, 255, 0);" preserveAspectRatio="xMidYMid"><defs><linearGradient id="editing-shiny-gradient" x1="0.04322727117869957" x2="0.9567727288213004" y1="0.2966316784620999" y2="0.7033683215379001" gradientUnits="objectBoundingBox"><stop offset="0.0" stop-color="#efc098"></stop><stop offset="0.5" stop-color="#ef8e3f"></stop><stop offset="1.0" stop-color="#c25e1e"></stop></linearGradient><linearGradient id="editing-shiny-gradient2" x1="0" x2="0" y1="0" y2="1"><stop offset="0.2" stop-color="#fff" stop-opacity="0.8"></stop><stop offset="0.8" stop-color="#fff" stop-opacity="0"></stop></linearGradient><filter id="editing-shiny2" x="-100%" y="-100%" width="300%" height="300%"><feMorphology operator="erode" radius="2"></feMorphology></filter><filter id="editing-shiny" x="-100%" y="-100%" width="300%" height="300%"><feFlood flood-color="#fff" result="flood"></feFlood><feConvolveMatrix in="SourceGraphic" result="conv" order="8,8" divisor="1" kernelMatrix="0 0 0 0 0 0 0 0 0 0 0 1 1 0 0 0 0 0 0 1 1 0 0 0 0 0 1 0 0 1 0 0 0 0 1 0 0 1 0 0 0 1 0 0 0 0 1 0 0 1 1 0 0 1 1 0 0 0 0 1 1 0 0 0 "></feConvolveMatrix><feOffset dx="0" dy="4" in="conv" result="offset"></feOffset><feComposite operator="in" in="flood" in2="offset" result="comp"></feComposite><feGaussianBlur in="offset" stdDeviation="3" result="shadow"></feGaussianBlur><feColorMatrix in="shadow" type="matrix" values="0.7 0 0 0 0  0 0.7 0 0 0  0 0 0.7 0 0  0 0 0 0.3 0" result="dark-shadow"></feColorMatrix><feOffset dx="0" dy="4" in="dark-shadow" result="offset-shadow"></feOffset><feOffset dx="0" dy="2" in="conv" result="offset-2"></feOffset><feComposite operator="out" in="offset" in2="offset-2" result="edge-diff"></feComposite><feGaussianBlur in="edge-diff" stdDeviation="1" result="edge-blur"></feGaussianBlur><feColorMatrix in="edge-blur" result="edge-shadow" type="matrix" values="0 0 0 0 0  0 0 0 0 0  0 0 0 0 0  0 0 0 0.5 0"></feColorMatrix><feComposite operator="in" in="edge-shadow" in2="offset" result="edge-shadow-in"></feComposite><feOffset dx="0" dy="1" in="edge-shadow-in" result="edge-shadow-final"></feOffset><feMerge result="out"><feMergeNode in="offset-shadow"></feMergeNode><feMergeNode in="comp"></feMergeNode><feMergeNode in="edge-shadow-final"></feMergeNode><feMergeNode in="SourceGraphic"></feMergeNode></feMerge></filter></defs><g filter="url(#editing-shiny)"><g transform="translate(-43.065213680267334, 162)"><path d="M105.60-50.20L105.60-50.20L105.60-50.20Q125-49.60 126.10-49.60L126.10-49.60L126.10-49.60Q127.20-49.60 127.40-49.60L127.40-49.60L127.40-49.60Q132.20-50 132.20-48.20L132.20-48.20L132.20-48.20Q132.20-45.40 124.40-45.40L124.40-45.40L107.40-45.80L107.40-45.80Q102.20-45.40 101.20-44.80L101.20-44.80L101.20-44.80Q92.80-34.40 78.60-14.70L78.60-14.70L78.60-14.70Q64.40 5 64.40 8.80L64.40 8.80L64.40 8.80Q64.40 10.40 68 8L68 8L68 8Q70.20 8 70.20 8.60L70.20 8.60L70.20 8.60Q70.20 9.60 65.80 11.60L65.80 11.60L60.20 14.60L60.20 14.60Q56.40 17.80 51.50 17.80L51.50 17.80L51.50 17.80Q46.60 17.80 47 15.40L47 15.40L47 15.40Q47.20 10.60 61.20-8.90L61.20-8.90L61.20-8.90Q75.20-28.40 90.20-46L90.20-46L90.20-46Q75.80-43.40 68.20-43.40L68.20-43.40L68.20-43.40Q67.40-43.60 67.40-44.70L67.40-44.70L67.40-44.70Q67.40-45.80 69.80-47.80L69.80-47.80L69.80-47.80Q72.20-49.80 74.90-49.80L74.90-49.80L74.90-49.80Q77.60-49.80 83.60-50L83.60-50L93.80-50L93.80-50Q100.60-59.20 124-92.40L124-92.40L124-92.40Q133.60-106.20 133.60-115.20L133.60-115.20L133.60-115.20Q133.60-129.20 112.80-129.20L112.80-129.20L112.80-129.20Q96.60-129.20 74.70-120.20L74.70-120.20L74.70-120.20Q52.80-111.20 34.40-95.60L34.40-95.60L34.40-95.60Q21.40-84.80 13.80-72.20L13.80-72.20L13.80-72.20Q6.20-59.60 6.20-49.80L6.20-49.80L6.20-49.80Q6.20-34 25-34L25-34L25-34Q26.60-34 28.40-34.20L28.40-34.20L28.40-34.20Q40.60-35.20 51.50-48.10L51.50-48.10L51.50-48.10Q62.40-61 62.40-69.80L62.40-69.80L62.40-69.80Q62.40-70.60 62.20-71.60L62.20-71.60L62.20-71.60Q67.40-70.60 67.40-65.40L67.40-65.40L67.40-65.40Q67.40-56.80 56.20-45.20L56.20-45.20L56.20-45.20Q41-29.40 21-29.40L21-29.40L21-29.40Q10-29.40 3.80-35.20L3.80-35.20L3.80-35.20Q-2.40-41-2.40-51L-2.40-51L-2.40-51Q-2.40-74.60 26.40-98.60L26.40-98.60L26.40-98.60Q47.20-115.60 70.60-124.30L70.60-124.30L70.60-124.30Q94-133 111.30-133L111.30-133L111.30-133Q128.60-133 137.10-128L137.10-128L137.10-128Q145.60-123 145.60-114.10L145.60-114.10L145.60-114.10Q145.60-105.20 137.80-94L137.80-94L137.80-94Q133.20-86.60 105.60-50.20ZM182.40 1.20L182.40 1.20L182.40 1.20Q181.40 1.40 178.10 1.40L178.10 1.40L178.10 1.40Q174.80 1.40 171.50-1.20L171.50-1.20L171.50-1.20Q168.20-3.80 168.20-7.90L168.20-7.90L168.20-7.90Q168.20-12 169.70-17L169.70-17L169.70-17Q171.20-22 171.80-24.60L171.80-24.60L171.80-24.60Q148.80 2.20 135.80 2.20L135.80 2.20L135.80 2.20Q127.60 2.20 126.80-8L126.80-8L126.80-8Q126.80-8.80 126.80-9.40L126.80-9.40L126.80-9.40Q126.80-18 137.20-32.60L137.20-32.60L137.20-32.60Q131.40-27.40 125.40-20.60L125.40-20.60L125.40-20.60Q124.60-19.80 123.40-19.80L123.40-19.80L123.40-19.80Q122.60-19.80 122.60-20.80L122.60-20.80L122.60-20.80Q122.60-21.80 124.40-24.20L124.40-24.20L152-56.60L152-56.60Q157.20-62.60 162.60-62.60L162.60-62.60L162.60-62.60Q168-62.60 168-59L168-59L168-59Q168-57.60 166.80-56.40L166.80-56.40L166.80-56.40Q158.80-49 146.70-31.80L146.70-31.80L146.70-31.80Q134.60-14.60 134.60-6.40L134.60-6.40L134.60-6.40Q134.60-2.80 137-2.80L137-2.80L137-2.80Q145.40-2.80 161.40-19.40L161.40-19.40L161.40-19.40Q167-25 182.20-44.10L182.20-44.10L182.20-44.10Q197.40-63.20 202.20-63.20L202.20-63.20L202.20-63.20Q209.40-63.20 209.40-57.60L209.40-57.60L209.40-57.60Q209.40-55.60 201-46L201-46L201-46Q189.60-32.20 183.60-23.50L183.60-23.50L183.60-23.50Q177.60-14.80 177.60-9.40L177.60-9.40L177.60-9.40Q177.60-4 180.60-4L180.60-4L180.60-4Q182-4 183.80-4.80L183.80-4.80L183.80-4.80Q197.60-10.80 216.80-32.80L216.80-32.80L216.80-32.80Q218-34.20 219.20-34.20L219.20-34.20L219.20-34.20Q220.40-34.20 220.40-32.90L220.40-32.90L220.40-32.90Q220.40-31.60 219-30L219-30L219-30Q210.40-20 198.80-9.90L198.80-9.90L198.80-9.90Q187.20 0.20 182.40 1.20ZM243.60-63.20L243.60-63.20L243.60-63.20Q249-63.20 249-59L249-59L249-59Q249-57.80 248.40-56.60L248.40-56.60L248.40-56.60Q230.40-31.60 226.80-18.80L226.80-18.80L226.80-18.80Q273.40-65.40 283.40-65.40L283.40-65.40L283.40-65.40Q284.40-65.60 285.20-65.60L285.20-65.60L285.20-65.60Q290.80-65.60 290.80-60.60L290.80-60.60L290.80-60.60Q290.80-59.60 290.40-58.60L290.40-58.60L290.40-58.60Q290-57.60 282.40-47.80L282.40-47.80L282.40-47.80Q273.60-37.40 267.50-27.80L267.50-27.80L267.50-27.80Q261.40-18.20 261.40-11.80L261.40-11.80L261.40-11.80Q261.40-5.40 264.20-5.40L264.20-5.40L264.20-5.40Q273-5.40 294.80-29.60L294.80-29.60L294.80-29.60Q295.20-30 296.20-31.40L296.20-31.40L296.20-31.40Q299.20-35 299.80-35L299.80-35L299.80-35Q300.40-35 300.40-33L300.40-33L300.40-33Q300.40-31 297.60-27.80L297.60-27.80L297.60-27.80Q272.80 0.40 262.40 0.40L262.40 0.40L262.40 0.40Q252.60 0.40 252.60-10.40L252.60-10.40L252.60-10.40Q252.60-21.20 260.60-35.20L260.60-35.20L273.40-56L273.40-56Q259.80-46 249.20-34.10L249.20-34.10L249.20-34.10Q238.60-22.20 229.90-11L229.90-11L229.90-11Q221.20 0.20 219.80 0.20L219.80 0.20L219.80 0.20Q216.80 0.20 215.10-2.30L215.10-2.30L215.10-2.30Q213.40-4.80 213.40-8.50L213.40-8.50L213.40-8.50Q213.40-12.20 216-18.40L216-18.40L216-18.40Q218.60-24.60 222.60-33.40L222.60-33.40L210.60-20.80L210.60-20.80Q206.20-16.40 205.10-16.40L205.10-16.40L205.10-16.40Q204-16.40 204-17.70L204-17.70L204-17.70Q204-19 205.60-20.60L205.60-20.60L205.60-20.60Q213-28 218.40-34.80L218.40-34.80L218.40-34.80Q223.60-41.60 239.80-60.80L239.80-60.80L239.80-60.80Q241.60-63.20 243.60-63.20ZM357.60-60.60L357.60-60.60L357.60-60.60Q380-97 388.80-97L388.80-97L388.80-97Q390.20-97 392.70-96.10L392.70-96.10L392.70-96.10Q395.20-95.20 395.20-93.40L395.20-93.40L395.20-93.40Q395.20-92.40 394.20-90.80L394.20-90.80L394.20-90.80Q378.20-71.20 370.40-61.40L370.40-61.40L370.40-61.40Q346.80-31.60 344.40-18.60L344.40-18.60L344.40-18.60Q343.80-15.80 343.80-13L343.80-13L343.80-13Q343.80-4 351.20-4L351.20-4L351.20-4Q366-4 389.80-31.40L389.80-31.40L389.80-31.40Q391.80-33.40 393.20-33.70L393.20-33.70L393.20-33.70Q394.60-34 394.60-33L394.60-33L394.60-33Q394.60-32 393.40-30.60L393.40-30.60L393.40-30.60Q370.20-2.80 352.20 0.40L352.20 0.40L352.20 0.40Q351.20 0.60 349.40 0.60L349.40 0.60L349.40 0.60Q343.20 0.60 340.10-3.70L340.10-3.70L340.10-3.70Q337-8 337-13L337-13L337-13Q337-18.60 339.20-25.40L339.20-25.40L323-9.20L323-9.20Q312 1 305.70 1L305.70 1L305.70 1Q299.40 1 295.20-2.40L295.20-2.40L295.20-2.40Q290.20-6.20 290.20-13L290.20-13L290.20-13Q290.20-27.60 310.60-47.90L310.60-47.90L310.60-47.90Q331-68.20 348-68.20L348-68.20L348-68.20Q353.60-68.20 355.80-65.20L355.80-65.20L355.80-65.20Q356.60-64.20 357.60-60.60ZM298.60-10.60L298.60-10.60L298.60-10.60Q298.60-3.40 303.60-3.40L303.60-3.40L303.60-3.40Q312.20-3.40 332.20-27L332.20-27L332.20-27Q335.80-31.20 356.20-58.40L356.20-58.40L356.20-58.40Q354.80-60.80 351.40-60.80L351.40-60.80L351.40-60.80Q339-60.80 318.80-41.90L318.80-41.90L318.80-41.90Q298.60-23 298.60-10.60ZM428.80-81.60L428.80-81.60Q431.80-81.60 434.50-79.70L434.50-79.70L434.50-79.70Q437.20-77.80 437.20-75.20L437.20-75.20L437.20-75.20Q437.20-72.60 434.70-70.70L434.70-70.70L434.70-70.70Q432.20-68.80 429.20-68.80L429.20-68.80L429.20-68.80Q426.20-68.80 423.70-71L423.70-71L423.70-71Q421.20-73.20 421.20-76L421.20-76L421.20-76Q421.20-81.60 428.80-81.60L428.80-81.60ZM392.60 2.20L392.60 2.20L392.60 2.20Q382.40 2.20 382.40-11L382.40-11L382.40-11Q382.40-21.80 394.20-40.90L394.20-40.90L394.20-40.90Q406-60 413.20-60.20L413.20-60.20L413.20-60.20Q415.20-60.20 417.70-58.60L417.70-58.60L417.70-58.60Q420.20-57 420.20-55.40L420.20-55.40L420.20-55.40Q419.20-54 417.80-52.30L417.80-52.30L417.80-52.30Q416.40-50.60 414.80-48.60L414.80-48.60L414.80-48.60Q413.20-46.60 410.40-42.90L410.40-42.90L410.40-42.90Q407.60-39.20 405-35.80L405-35.80L405-35.80Q390-16.40 390-9.10L390-9.10L390-9.10Q390-1.80 395-1.80L395-1.80L395-1.80Q399.20-1.80 406.40-6.40L406.40-6.40L406.40-6.40Q423.20-16.80 433-29.20L433-29.20L433-29.20Q436.60-33.80 437.90-33.80L437.90-33.80L437.90-33.80Q439.20-33.80 439.20-32.20L439.20-32.20L439.20-32.20Q439.20-30.60 434.60-25.80L434.60-25.80L434.60-25.80Q430-21 427.30-18.20L427.30-18.20L427.30-18.20Q424.60-15.40 423.60-14.50L423.60-14.50L423.60-14.50Q422.60-13.60 419.90-11.10L419.90-11.10L419.90-11.10Q417.20-8.60 415.80-7.60L415.80-7.60L415.80-7.60Q414.40-6.60 411.80-4.60L411.80-4.60L411.80-4.60Q409.20-2.60 407.20-1.70L407.20-1.70L407.20-1.70Q405.20-0.80 402.60 0.40L402.60 0.40L402.60 0.40Q398.40 2.20 392.60 2.20ZM462.80-63.20L462.80-63.20L462.80-63.20Q468.20-63.20 468.20-59L468.20-59L468.20-59Q468.20-57.80 467.60-56.60L467.60-56.60L467.60-56.60Q449.60-31.60 446.00-18.80L446.00-18.80L446.00-18.80Q492.60-65.40 502.60-65.40L502.60-65.40L502.60-65.40Q503.60-65.60 504.40-65.60L504.40-65.60L504.40-65.60Q510-65.60 510-60.60L510-60.60L510-60.60Q510-59.60 509.60-58.60L509.60-58.60L509.60-58.60Q509.20-57.60 501.60-47.80L501.60-47.80L501.60-47.80Q492.80-37.40 486.70-27.80L486.70-27.80L486.70-27.80Q480.60-18.20 480.60-11.80L480.60-11.80L480.60-11.80Q480.60-5.40 483.40-5.40L483.40-5.40L483.40-5.40Q492.20-5.40 514-29.60L514-29.60L514-29.60Q514.40-30 515.40-31.40L515.40-31.40L515.40-31.40Q518.40-35 519-35L519-35L519-35Q519.60-35 519.60-33L519.60-33L519.60-33Q519.60-31 516.80-27.80L516.80-27.80L516.80-27.80Q492 0.40 481.60 0.40L481.60 0.40L481.60 0.40Q471.80 0.40 471.80-10.40L471.80-10.40L471.80-10.40Q471.80-21.20 479.80-35.20L479.80-35.20L492.60-56L492.60-56Q479-46 468.40-34.10L468.40-34.10L468.40-34.10Q457.80-22.20 449.10-11L449.10-11L449.10-11Q440.40 0.20 439.00 0.20L439.00 0.20L439.00 0.20Q436.00 0.20 434.30-2.30L434.30-2.30L434.30-2.30Q432.60-4.80 432.60-8.50L432.60-8.50L432.60-8.50Q432.60-12.20 435.20-18.40L435.20-18.40L435.20-18.40Q437.80-24.60 441.80-33.40L441.80-33.40L429.80-20.80L429.80-20.80Q425.40-16.40 424.30-16.40L424.30-16.40L424.30-16.40Q423.20-16.40 423.20-17.70L423.20-17.70L423.20-17.70Q423.20-19 424.80-20.60L424.80-20.60L424.80-20.60Q432.20-28 437.60-34.80L437.60-34.80L437.60-34.80Q442.80-41.60 459.00-60.80L459.00-60.80L459.00-60.80Q460.80-63.20 462.80-63.20ZM578-61L578-61L580.80-61.60L580.80-61.60Q583.40-61.60 584.90-60L584.90-60L584.90-60Q586.40-58.40 586.40-57.50L586.40-57.50L586.40-57.50Q586.40-56.60 586.20-55.50L586.20-55.50L586.20-55.50Q586-54.40 580.40-45.40L580.40-45.40L580.40-45.40Q573.40-33.20 568.80-24.80L568.80-24.80L568.80-24.80Q552.60 5.40 544 16.60L544 16.60L544 16.60Q525.60 41 509 41L509 41L509 41Q503.20 41 498.90 36.10L498.90 36.10L498.90 36.10Q494.60 31.20 494.40 25.20L494.40 25.20L494.40 25.20Q495 22.80 496.20 22.80L496.20 22.80L496.20 22.80Q496.80 22.80 497.20 24.20L497.20 24.20L497.20 24.20Q498.20 29.40 501 32.20L501 32.20L501 32.20Q503.80 35 506.60 35L506.60 35L506.60 35Q518 35 531 20L531 20L531 20Q539.60 10 550-9.20L550-9.20L560-29L545-13.80L545-13.80Q530.60 0 525.30 0L525.30 0L525.30 0Q520 0 515.20-3.60L515.20-3.60L515.20-3.60Q509.80-7.60 509.80-14.20L509.80-14.20L509.80-14.20Q509.80-28.80 530.30-49L530.30-49L530.30-49Q550.80-69.20 567.60-69.20L567.60-69.20L567.60-69.20Q574.40-69.20 576.40-64.80L576.40-64.80L576.40-64.80Q577-63.20 577.40-62.10L577.40-62.10L577.40-62.10Q577.80-61 578-61ZM518.20-11.80L518.20-11.80L518.20-11.80Q518.20-4.60 523.20-4.60L523.20-4.60L523.20-4.60Q534.80-4.60 554.80-30L554.80-30L576-59.20L576-59.20Q574.80-62 571-62L571-62L571-62Q558.60-62 538.40-42.90L538.40-42.90L538.40-42.90Q518.20-23.80 518.20-11.80Z" fill="url(#editing-shiny-gradient)"></path></g></g><g filter="url(#editing-shiny2)"><g transform="translate(-42.60399389266968, 161.99999618530273)"><path d="M105.60-50.20L105.60-50.20L105.60-50.20Q125-49.60 126.10-49.60L126.10-49.60L126.10-49.60Q127.20-49.60 127.40-49.60L127.40-49.60L127.40-49.60Q132.20-50 132.20-48.20L132.20-48.20L132.20-48.20Q132.20-45.40 124.40-45.40L124.40-45.40L107.40-45.80L107.40-45.80Q102.20-45.40 101.20-44.80L101.20-44.80L101.20-44.80Q92.80-34.40 78.60-14.70L78.60-14.70L78.60-14.70Q64.40 5 64.40 8.80L64.40 8.80L64.40 8.80Q64.40 10.40 68 8L68 8L68 8Q70.20 8 70.20 8.60L70.20 8.60L70.20 8.60Q70.20 9.60 65.80 11.60L65.80 11.60L60.20 14.60L60.20 14.60Q56.40 17.80 51.50 17.80L51.50 17.80L51.50 17.80Q46.60 17.80 47 15.40L47 15.40L47 15.40Q47.20 10.60 61.20-8.90L61.20-8.90L61.20-8.90Q75.20-28.40 90.20-46L90.20-46L90.20-46Q75.80-43.40 68.20-43.40L68.20-43.40L68.20-43.40Q67.40-43.60 67.40-44.70L67.40-44.70L67.40-44.70Q67.40-45.80 69.80-47.80L69.80-47.80L69.80-47.80Q72.20-49.80 74.90-49.80L74.90-49.80L74.90-49.80Q77.60-49.80 83.60-50L83.60-50L93.80-50L93.80-50Q100.60-59.20 124-92.40L124-92.40L124-92.40Q133.60-106.20 133.60-115.20L133.60-115.20L133.60-115.20Q133.60-129.20 112.80-129.20L112.80-129.20L112.80-129.20Q96.60-129.20 74.70-120.20L74.70-120.20L74.70-120.20Q52.80-111.20 34.40-95.60L34.40-95.60L34.40-95.60Q21.40-84.80 13.80-72.20L13.80-72.20L13.80-72.20Q6.20-59.60 6.20-49.80L6.20-49.80L6.20-49.80Q6.20-34 25-34L25-34L25-34Q26.60-34 28.40-34.20L28.40-34.20L28.40-34.20Q40.60-35.20 51.50-48.10L51.50-48.10L51.50-48.10Q62.40-61 62.40-69.80L62.40-69.80L62.40-69.80Q62.40-70.60 62.20-71.60L62.20-71.60L62.20-71.60Q67.40-70.60 67.40-65.40L67.40-65.40L67.40-65.40Q67.40-56.80 56.20-45.20L56.20-45.20L56.20-45.20Q41-29.40 21-29.40L21-29.40L21-29.40Q10-29.40 3.80-35.20L3.80-35.20L3.80-35.20Q-2.40-41-2.40-51L-2.40-51L-2.40-51Q-2.40-74.60 26.40-98.60L26.40-98.60L26.40-98.60Q47.20-115.60 70.60-124.30L70.60-124.30L70.60-124.30Q94-133 111.30-133L111.30-133L111.30-133Q128.60-133 137.10-128L137.10-128L137.10-128Q145.60-123 145.60-114.10L145.60-114.10L145.60-114.10Q145.60-105.20 137.80-94L137.80-94L137.80-94Q133.20-86.60 105.60-50.20ZM182.40 1.20L182.40 1.20L182.40 1.20Q181.40 1.40 178.10 1.40L178.10 1.40L178.10 1.40Q174.80 1.40 171.50-1.20L171.50-1.20L171.50-1.20Q168.20-3.80 168.20-7.90L168.20-7.90L168.20-7.90Q168.20-12 169.70-17L169.70-17L169.70-17Q171.20-22 171.80-24.60L171.80-24.60L171.80-24.60Q148.80 2.20 135.80 2.20L135.80 2.20L135.80 2.20Q127.60 2.20 126.80-8L126.80-8L126.80-8Q126.80-8.80 126.80-9.40L126.80-9.40L126.80-9.40Q126.80-18 137.20-32.60L137.20-32.60L137.20-32.60Q131.40-27.40 125.40-20.60L125.40-20.60L125.40-20.60Q124.60-19.80 123.40-19.80L123.40-19.80L123.40-19.80Q122.60-19.80 122.60-20.80L122.60-20.80L122.60-20.80Q122.60-21.80 124.40-24.20L124.40-24.20L152-56.60L152-56.60Q157.20-62.60 162.60-62.60L162.60-62.60L162.60-62.60Q168-62.60 168-59L168-59L168-59Q168-57.60 166.80-56.40L166.80-56.40L166.80-56.40Q158.80-49 146.70-31.80L146.70-31.80L146.70-31.80Q134.60-14.60 134.60-6.40L134.60-6.40L134.60-6.40Q134.60-2.80 137-2.80L137-2.80L137-2.80Q145.40-2.80 161.40-19.40L161.40-19.40L161.40-19.40Q167-25 182.20-44.10L182.20-44.10L182.20-44.10Q197.40-63.20 202.20-63.20L202.20-63.20L202.20-63.20Q209.40-63.20 209.40-57.60L209.40-57.60L209.40-57.60Q209.40-55.60 201-46L201-46L201-46Q189.60-32.20 183.60-23.50L183.60-23.50L183.60-23.50Q177.60-14.80 177.60-9.40L177.60-9.40L177.60-9.40Q177.60-4 180.60-4L180.60-4L180.60-4Q182-4 183.80-4.80L183.80-4.80L183.80-4.80Q197.60-10.80 216.80-32.80L216.80-32.80L216.80-32.80Q218-34.20 219.20-34.20L219.20-34.20L219.20-34.20Q220.40-34.20 220.40-32.90L220.40-32.90L220.40-32.90Q220.40-31.60 219-30L219-30L219-30Q210.40-20 198.80-9.90L198.80-9.90L198.80-9.90Q187.20 0.20 182.40 1.20ZM243.60-63.20L243.60-63.20L243.60-63.20Q249-63.20 249-59L249-59L249-59Q249-57.80 248.40-56.60L248.40-56.60L248.40-56.60Q230.40-31.60 226.80-18.80L226.80-18.80L226.80-18.80Q273.40-65.40 283.40-65.40L283.40-65.40L283.40-65.40Q284.40-65.60 285.20-65.60L285.20-65.60L285.20-65.60Q290.80-65.60 290.80-60.60L290.80-60.60L290.80-60.60Q290.80-59.60 290.40-58.60L290.40-58.60L290.40-58.60Q290-57.60 282.40-47.80L282.40-47.80L282.40-47.80Q273.60-37.40 267.50-27.80L267.50-27.80L267.50-27.80Q261.40-18.20 261.40-11.80L261.40-11.80L261.40-11.80Q261.40-5.40 264.20-5.40L264.20-5.40L264.20-5.40Q273-5.40 294.80-29.60L294.80-29.60L294.80-29.60Q295.20-30 296.20-31.40L296.20-31.40L296.20-31.40Q299.20-35 299.80-35L299.80-35L299.80-35Q300.40-35 300.40-33L300.40-33L300.40-33Q300.40-31 297.60-27.80L297.60-27.80L297.60-27.80Q272.80 0.40 262.40 0.40L262.40 0.40L262.40 0.40Q252.60 0.40 252.60-10.40L252.60-10.40L252.60-10.40Q252.60-21.20 260.60-35.20L260.60-35.20L273.40-56L273.40-56Q259.80-46 249.20-34.10L249.20-34.10L249.20-34.10Q238.60-22.20 229.90-11L229.90-11L229.90-11Q221.20 0.20 219.80 0.20L219.80 0.20L219.80 0.20Q216.80 0.20 215.10-2.30L215.10-2.30L215.10-2.30Q213.40-4.80 213.40-8.50L213.40-8.50L213.40-8.50Q213.40-12.20 216-18.40L216-18.40L216-18.40Q218.60-24.60 222.60-33.40L222.60-33.40L210.60-20.80L210.60-20.80Q206.20-16.40 205.10-16.40L205.10-16.40L205.10-16.40Q204-16.40 204-17.70L204-17.70L204-17.70Q204-19 205.60-20.60L205.60-20.60L205.60-20.60Q213-28 218.40-34.80L218.40-34.80L218.40-34.80Q223.60-41.60 239.80-60.80L239.80-60.80L239.80-60.80Q241.60-63.20 243.60-63.20ZM357.60-60.60L357.60-60.60L357.60-60.60Q380-97 388.80-97L388.80-97L388.80-97Q390.20-97 392.70-96.10L392.70-96.10L392.70-96.10Q395.20-95.20 395.20-93.40L395.20-93.40L395.20-93.40Q395.20-92.40 394.20-90.80L394.20-90.80L394.20-90.80Q378.20-71.20 370.40-61.40L370.40-61.40L370.40-61.40Q346.80-31.60 344.40-18.60L344.40-18.60L344.40-18.60Q343.80-15.80 343.80-13L343.80-13L343.80-13Q343.80-4 351.20-4L351.20-4L351.20-4Q366-4 389.80-31.40L389.80-31.40L389.80-31.40Q391.80-33.40 393.20-33.70L393.20-33.70L393.20-33.70Q394.60-34 394.60-33L394.60-33L394.60-33Q394.60-32 393.40-30.60L393.40-30.60L393.40-30.60Q370.20-2.80 352.20 0.40L352.20 0.40L352.20 0.40Q351.20 0.60 349.40 0.60L349.40 0.60L349.40 0.60Q343.20 0.60 340.10-3.70L340.10-3.70L340.10-3.70Q337-8 337-13L337-13L337-13Q337-18.60 339.20-25.40L339.20-25.40L323-9.20L323-9.20Q312 1 305.70 1L305.70 1L305.70 1Q299.40 1 295.20-2.40L295.20-2.40L295.20-2.40Q290.20-6.20 290.20-13L290.20-13L290.20-13Q290.20-27.60 310.60-47.90L310.60-47.90L310.60-47.90Q331-68.20 348-68.20L348-68.20L348-68.20Q353.60-68.20 355.80-65.20L355.80-65.20L355.80-65.20Q356.60-64.20 357.60-60.60ZM298.60-10.60L298.60-10.60L298.60-10.60Q298.60-3.40 303.60-3.40L303.60-3.40L303.60-3.40Q312.20-3.40 332.20-27L332.20-27L332.20-27Q335.80-31.20 356.20-58.40L356.20-58.40L356.20-58.40Q354.80-60.80 351.40-60.80L351.40-60.80L351.40-60.80Q339-60.80 318.80-41.90L318.80-41.90L318.80-41.90Q298.60-23 298.60-10.60ZM428.80-81.60L428.80-81.60Q431.80-81.60 434.50-79.70L434.50-79.70L434.50-79.70Q437.20-77.80 437.20-75.20L437.20-75.20L437.20-75.20Q437.20-72.60 434.70-70.70L434.70-70.70L434.70-70.70Q432.20-68.80 429.20-68.80L429.20-68.80L429.20-68.80Q426.20-68.80 423.70-71L423.70-71L423.70-71Q421.20-73.20 421.20-76L421.20-76L421.20-76Q421.20-81.60 428.80-81.60L428.80-81.60ZM392.60 2.20L392.60 2.20L392.60 2.20Q382.40 2.20 382.40-11L382.40-11L382.40-11Q382.40-21.80 394.20-40.90L394.20-40.90L394.20-40.90Q406-60 413.20-60.20L413.20-60.20L413.20-60.20Q415.20-60.20 417.70-58.60L417.70-58.60L417.70-58.60Q420.20-57 420.20-55.40L420.20-55.40L420.20-55.40Q419.20-54 417.80-52.30L417.80-52.30L417.80-52.30Q416.40-50.60 414.80-48.60L414.80-48.60L414.80-48.60Q413.20-46.60 410.40-42.90L410.40-42.90L410.40-42.90Q407.60-39.20 405-35.80L405-35.80L405-35.80Q390-16.40 390-9.10L390-9.10L390-9.10Q390-1.80 395-1.80L395-1.80L395-1.80Q399.20-1.80 406.40-6.40L406.40-6.40L406.40-6.40Q423.20-16.80 433-29.20L433-29.20L433-29.20Q436.60-33.80 437.90-33.80L437.90-33.80L437.90-33.80Q439.20-33.80 439.20-32.20L439.20-32.20L439.20-32.20Q439.20-30.60 434.60-25.80L434.60-25.80L434.60-25.80Q430-21 427.30-18.20L427.30-18.20L427.30-18.20Q424.60-15.40 423.60-14.50L423.60-14.50L423.60-14.50Q422.60-13.60 419.90-11.10L419.90-11.10L419.90-11.10Q417.20-8.60 415.80-7.60L415.80-7.60L415.80-7.60Q414.40-6.60 411.80-4.60L411.80-4.60L411.80-4.60Q409.20-2.60 407.20-1.70L407.20-1.70L407.20-1.70Q405.20-0.80 402.60 0.40L402.60 0.40L402.60 0.40Q398.40 2.20 392.60 2.20ZM462.80-63.20L462.80-63.20L462.80-63.20Q468.20-63.20 468.20-59L468.20-59L468.20-59Q468.20-57.80 467.60-56.60L467.60-56.60L467.60-56.60Q449.60-31.60 446.00-18.80L446.00-18.80L446.00-18.80Q492.60-65.40 502.60-65.40L502.60-65.40L502.60-65.40Q503.60-65.60 504.40-65.60L504.40-65.60L504.40-65.60Q510-65.60 510-60.60L510-60.60L510-60.60Q510-59.60 509.60-58.60L509.60-58.60L509.60-58.60Q509.20-57.60 501.60-47.80L501.60-47.80L501.60-47.80Q492.80-37.40 486.70-27.80L486.70-27.80L486.70-27.80Q480.60-18.20 480.60-11.80L480.60-11.80L480.60-11.80Q480.60-5.40 483.40-5.40L483.40-5.40L483.40-5.40Q492.20-5.40 514-29.60L514-29.60L514-29.60Q514.40-30 515.40-31.40L515.40-31.40L515.40-31.40Q518.40-35 519-35L519-35L519-35Q519.60-35 519.60-33L519.60-33L519.60-33Q519.60-31 516.80-27.80L516.80-27.80L516.80-27.80Q492 0.40 481.60 0.40L481.60 0.40L481.60 0.40Q471.80 0.40 471.80-10.40L471.80-10.40L471.80-10.40Q471.80-21.20 479.80-35.20L479.80-35.20L492.60-56L492.60-56Q479-46 468.40-34.10L468.40-34.10L468.40-34.10Q457.80-22.20 449.10-11L449.10-11L449.10-11Q440.40 0.20 439.00 0.20L439.00 0.20L439.00 0.20Q436.00 0.20 434.30-2.30L434.30-2.30L434.30-2.30Q432.60-4.80 432.60-8.50L432.60-8.50L432.60-8.50Q432.60-12.20 435.20-18.40L435.20-18.40L435.20-18.40Q437.80-24.60 441.80-33.40L441.80-33.40L429.80-20.80L429.80-20.80Q425.40-16.40 424.30-16.40L424.30-16.40L424.30-16.40Q423.20-16.40 423.20-17.70L423.20-17.70L423.20-17.70Q423.20-19 424.80-20.60L424.80-20.60L424.80-20.60Q432.20-28 437.60-34.80L437.60-34.80L437.60-34.80Q442.80-41.60 459.00-60.80L459.00-60.80L459.00-60.80Q460.80-63.20 462.80-63.20ZM578-61L578-61L580.80-61.60L580.80-61.60Q583.40-61.60 584.90-60L584.90-60L584.90-60Q586.40-58.40 586.40-57.50L586.40-57.50L586.40-57.50Q586.40-56.60 586.20-55.50L586.20-55.50L586.20-55.50Q586-54.40 580.40-45.40L580.40-45.40L580.40-45.40Q573.40-33.20 568.80-24.80L568.80-24.80L568.80-24.80Q552.60 5.40 544 16.60L544 16.60L544 16.60Q525.60 41 509 41L509 41L509 41Q503.20 41 498.90 36.10L498.90 36.10L498.90 36.10Q494.60 31.20 494.40 25.20L494.40 25.20L494.40 25.20Q495 22.80 496.20 22.80L496.20 22.80L496.20 22.80Q496.80 22.80 497.20 24.20L497.20 24.20L497.20 24.20Q498.20 29.40 501 32.20L501 32.20L501 32.20Q503.80 35 506.60 35L506.60 35L506.60 35Q518 35 531 20L531 20L531 20Q539.60 10 550-9.20L550-9.20L560-29L545-13.80L545-13.80Q530.60 0 525.30 0L525.30 0L525.30 0Q520 0 515.20-3.60L515.20-3.60L515.20-3.60Q509.80-7.60 509.80-14.20L509.80-14.20L509.80-14.20Q509.80-28.80 530.30-49L530.30-49L530.30-49Q550.80-69.20 567.60-69.20L567.60-69.20L567.60-69.20Q574.40-69.20 576.40-64.80L576.40-64.80L576.40-64.80Q577-63.20 577.40-62.10L577.40-62.10L577.40-62.10Q577.80-61 578-61ZM518.20-11.80L518.20-11.80L518.20-11.80Q518.20-4.60 523.20-4.60L523.20-4.60L523.20-4.60Q534.80-4.60 554.80-30L554.80-30L576-59.20L576-59.20Q574.80-62 571-62L571-62L571-62Q558.60-62 538.40-42.90L538.40-42.90L538.40-42.90Q518.20-23.80 518.20-11.80Z" fill="url(#editing-shiny-gradient2)"></path></g></g><style>text {
  font-size: 64px;
  font-family: Arial Black;
  dominant-baseline: central;
  text-anchor: middle;
}</style></svg>